<?xml version="1.0" encoding="UTF-8"?><svg id="Layer_2" xmlns="http://www.w3.org/2000/svg" xmlns:xlink="http://www.w3.org/1999/xlink" viewBox="0 0 336.8 461.91"><defs><style>.cls-1{fill:url(#linear-gradient);}.cls-2{opacity:.06;}.cls-3{fill:#03baf9;}.cls-4{fill:#e969ba;}.cls-5,.cls-6{fill:#fff;}.cls-7{fill:#ed423a;}.cls-8{fill:#9197d0;}.cls-9{fill:#6ae0e9;}.cls-10{fill:#c7cce8;}.cls-11{fill:#266f85;}.cls-12{fill:#838dc6;}.cls-13{opacity:.31;}.cls-14{fill:#c14c55;}.cls-14,.cls-15,.cls-6{fill-rule:evenodd;}.cls-15{fill:#ed686e;}</style><linearGradient id="linear-gradient" x1="309" y1="406.99" x2="313.93" y2="406.99" gradientTransform="matrix(1, 0, 0, 1, 0, 0)" gradientUnits="userSpaceOnUse"><stop offset="0" stop-color="#fff"/><stop offset=".15" stop-color="#c6ccce"/><stop offset=".31" stop-color="#8e9a9d"/><stop offset=".48" stop-color="#607075"/><stop offset=".63" stop-color="#3c4f55"/><stop offset=".77" stop-color="#22383f"/><stop offset=".9" stop-color="#122931"/><stop offset="1" stop-color="#0d252d"/></linearGradient></defs><g id="Layer_1-2"><g><g><g><g><g><path class="cls-10" d="M86.94,351.13l170.19,98.24c0-.06,38.4-29.11,61.34-35.63l-180.85-104.39c-20.26,7.99-40.93,19.89-61.19,35.24l-.41,.24c.05,.03,10.93,6.31,10.93,6.31h0Z"/><g class="cls-13"><path class="cls-5" d="M87.01,351c14.49,7.65,29.05,15.19,43.35,23.17l21.52,11.86,21.36,12.13c14.28,8.02,28.47,16.19,42.55,24.55l21.19,12.43c7.08,4.12,14.03,8.46,21.05,12.67,0,0-.81-.47,.31-1.41,.55-.46,1.14-.91,1.67-1.28l1.34-.9,5.35-3.61c3.52-2.48,7.24-4.65,10.93-6.87l5.53-3.32c1.82-1.13,3.79-2.05,5.67-3.08l11.4-6.01,.13,.25-11.12,6.44c-1.84,1.1-3.75,2.08-5.52,3.28l-5.38,3.52c-3.57,2.37-7.21,4.64-10.67,7.17l-10.34,7.36-.28,.2s-170.19-98.31-170.19-98.31l.14-.25Z"/></g><path class="cls-12" d="M315.89,413.74c-20.31,8.04-38.45,20-58.76,35.44v12.54c20.52-11.85,41.09-23.69,61.61-35.54,0-4.18-.26-9.3-.26-13.48-.09,.03-2.5,1.01-2.59,1.04Z"/><path class="cls-8" d="M86.94,351.13l-10.88-6.28c-.05,4.2-.05,8.36-.05,12.52,.06,.03,181.11,104.54,181.11,104.54v-12.54l-170.19-98.24Z"/></g><path class="cls-12" d="M184.94,300.48v74.22c0,1.84,1.21,3.68,3.64,5.08,4.86,2.81,12.73,2.81,17.59,0,2.43-1.4,3.64-3.24,3.64-5.08v-74.22h-24.87Z"/></g><g><g><polygon class="cls-11" points="256.35 376.21 244.81 369.55 244.81 366.67 256.35 373.34 256.35 376.21"/><polygon points="259.03 380.86 242.13 371.09 242.13 362.03 259.03 371.79 259.03 380.86"/></g><g><polygon class="cls-11" points="271.07 384.71 259.52 378.04 259.52 375.17 271.07 381.83 271.07 384.71"/><polygon points="273.74 389.35 256.84 379.59 256.84 370.52 273.74 380.28 273.74 389.35"/></g><g><polygon class="cls-11" points="285.78 393.2 274.23 386.54 274.23 383.66 285.78 390.33 285.78 393.2"/><polygon points="288.46 397.84 271.55 388.08 271.55 379.02 288.46 388.78 288.46 397.84"/></g><g><path class="cls-10" d="M328.15,181.79L15.89,1.5C14.14,.49,12.51,.16,11.15,.41l-.44-.41L2.16,5.32,7.24,14.8V218.96c0,5.52,3.87,12.22,8.65,14.98l308.42,178.07,1.62,7.43,6.76-4.11c2.46-.34,4.11-2.51,4.11-6.1V196.77c0-5.52-3.87-12.22-8.65-14.98Z"/><path class="cls-8" d="M320.91,418.4L8.65,238.12c-4.78-2.76-8.65-9.46-8.65-14.98V10.68c0-2.53,.82-4.38,2.16-5.36,1.58-1.16,3.9-1.13,6.48,.37L320.91,185.97c4.78,2.76,8.65,9.46,8.65,14.98v212.46c0,5.52-3.87,7.75-8.65,4.99Z"/><path class="cls-5" d="M325.92,198.84v204.36c-.13,3.05-2.3,4.22-5.02,2.63L8.65,225.57c-2.76-1.59-5.02-5.48-5.02-8.7V12.76c0-1.76,.67-2.93,1.8-3.35,.84-.38,1.97-.25,3.22,.46L320.9,190.14c2.8,1.59,5.02,5.52,5.02,8.7Z"/></g><polygon class="cls-3" points="300.49 401.69 288.95 395.03 288.95 392.15 300.49 398.82 300.49 401.69"/><polygon class="cls-4" points="287.25 393.85 275.7 387.19 275.7 384.31 287.25 390.98 287.25 393.85"/><path class="cls-10" d="M315.89,409.54c0,2.82-1.98,3.96-4.42,2.55-2.44-1.41-4.42-4.83-4.42-7.65s1.98-3.96,4.42-2.55c2.44,1.41,4.42,4.83,4.42,7.65Z"/><g class="cls-2"><path class="cls-1" d="M313.93,408.41c0,1.57-1.1,2.21-2.46,1.42-1.36-.79-2.47-2.7-2.47-4.27s1.1-2.21,2.47-1.42c1.36,.79,2.46,2.7,2.46,4.27Z"/></g></g></g><polygon class="cls-10" points="134.22 108.41 28.77 47.53 28.77 36.97 134.22 97.85 134.22 108.41"/><polygon class="cls-10" points="218.69 157.17 168.59 128.25 168.59 117.69 218.69 146.62 218.69 157.17"/><polygon class="cls-10" points="77.93 117.58 28.77 89.2 28.77 78.64 77.93 107.02 77.93 117.58"/><polygon class="cls-10" points="108.18 135.05 86.94 122.78 86.94 112.23 108.18 124.49 108.18 135.05"/><polygon class="cls-10" points="134.75 150.39 115.02 139 115.02 128.44 134.75 139.83 134.75 150.39"/><polygon class="cls-10" points="86.94 146.03 28.77 112.44 28.77 101.89 86.94 135.47 86.94 146.03"/><polygon class="cls-7" points="114.47 161.92 94.43 150.35 94.43 139.79 114.47 151.36 114.47 161.92"/><polygon class="cls-7" points="114.05 184.92 28.77 135.68 28.77 125.13 114.05 174.36 114.05 184.92"/><polygon class="cls-10" points="139.06 199.36 110.71 182.99 110.71 172.44 139.06 188.81 139.06 199.36"/><polygon class="cls-10" points="169.5 216.93 146.36 203.57 146.36 193.02 169.5 206.38 169.5 216.93"/><polygon class="cls-10" points="85.15 191.48 28.77 158.93 28.77 148.37 85.15 180.92 85.15 191.48"/><polygon class="cls-10" points="112.47 207.25 92.9 195.95 92.9 185.4 112.47 196.7 112.47 207.25"/><polygon class="cls-10" points="89.42 217.19 28.77 182.17 28.77 171.62 89.42 206.63 89.42 217.19"/><polygon class="cls-10" points="110.95 229.62 94.43 220.08 94.43 209.52 110.95 219.06 110.95 229.62"/><polygon class="cls-7" points="146.06 249.89 117.85 233.6 117.85 223.05 146.06 239.33 146.06 249.89"/><polygon class="cls-10" points="86.52 238.76 28.77 205.41 28.77 194.86 86.52 228.2 86.52 238.76"/><polygon class="cls-7" points="115.71 255.61 89.67 240.57 89.67 230.02 115.71 245.05 115.71 255.61"/><polygon class="cls-9" points="171.41 146.92 28.77 64.57 28.77 54.01 171.41 136.36 171.41 146.92"/><polygon class="cls-10" points="261.94 199.19 184.57 154.52 184.57 143.96 261.94 188.63 261.94 199.19"/></g><g><path class="cls-14" d="M149.05,398.88h.01l-41.05-130.12c-3.17-10.03-9.67-15.92-14.79-15.22-2.1,.29-3.97,1.68-5.28,4.35l-41.35,83.04c-4.59,9.32,.86,26.72,9.82,31.81l82.39,46.77c9.16,5.2,14.87-5.96,10.25-20.63Z"/><polygon class="cls-14" points="80.16 258.85 91.84 253.98 145.8 420.06 133.67 425.28 80.16 258.85"/><g><path class="cls-15" d="M137.45,403.81h.01l-41.05-130.12c-4.46-14.14-15.54-20.05-20.08-10.87l-41.35,83.04c-4.59,9.32,.86,26.72,9.82,31.81l82.39,46.77c9.16,5.2,14.87-5.96,10.25-20.63Zm-45.65-28.94c0,2.31-1.07,3.59-2.79,2.62l-6.21-3.51c-1.72-.97-2.76-3.43-2.75-5.74l.04-8.37c.01-2.3,1.06-3.58,2.78-2.61l6.2,3.49c1.72,.97,2.76,3.42,2.75,5.73l-.03,8.39Zm.13-33.45c0,2.31-1.06,3.59-2.78,2.63l-6.19-3.47c-1.71-.96-2.75-3.4-2.74-5.71l.16-33.19c.01-2.3,1.06-3.56,2.77-2.61l6.17,3.43c1.71,.95,2.75,3.38,2.74,5.68l-.12,33.26Z"/><path class="cls-6" d="M91.83,366.48l-.03,8.39c0,2.31-1.07,3.59-2.79,2.62l-6.21-3.51c-1.72-.97-2.76-3.43-2.75-5.74l.04-8.37c.01-2.3,1.06-3.58,2.78-2.61l6.2,3.49c1.72,.97,2.76,3.42,2.75,5.73Z"/><path class="cls-6" d="M92.05,308.16l-.12,33.26c0,2.31-1.06,3.59-2.78,2.63l-6.19-3.47c-1.71-.96-2.75-3.4-2.74-5.71l.16-33.19c.01-2.3,1.06-3.56,2.77-2.61l6.17,3.43c1.71,.95,2.75,3.38,2.74,5.68Z"/></g></g></g></g></svg>